<svg width="44" height="44" viewBox="0 0 44 44" fill="none" xmlns="http://www.w3.org/2000/svg">
<rect width="44" height="44" rx="12" fill="#2667FF"/>
<path d="M20.4933 28.6295C20.4933 28.8679 20.4226 29.1009 20.2901 29.2992C20.1577 29.4974 19.9694 29.6519 19.7492 29.7431C19.5289 29.8343 19.2866 29.8582 19.0527 29.8117C18.8189 29.7652 18.6042 29.6504 18.4356 29.4818C18.267 29.3133 18.1522 29.0985 18.1057 28.8647C18.0592 28.6308 18.0831 28.3885 18.1743 28.1682C18.2655 27.948 18.42 27.7597 18.6182 27.6273C18.8165 27.4948 19.0495 27.4242 19.2879 27.4242C19.6076 27.4242 19.9142 27.5511 20.1402 27.7772C20.3663 28.0032 20.4933 28.3098 20.4933 28.6295ZM27.1227 27.4242C26.8843 27.4242 26.6513 27.4948 26.4531 27.6273C26.2548 27.7597 26.1003 27.948 26.0091 28.1682C25.9179 28.3885 25.894 28.6308 25.9405 28.8647C25.987 29.0985 26.1018 29.3133 26.2704 29.4818C26.439 29.6504 26.6537 29.7652 26.8876 29.8117C27.1214 29.8582 27.3637 29.8343 27.584 29.7431C27.8042 29.6519 27.9925 29.4974 28.1249 29.2992C28.2574 29.1009 28.3281 28.8679 28.3281 28.6295C28.3281 28.3098 28.2011 28.0032 27.975 27.7772C27.749 27.5511 27.4424 27.4242 27.1227 27.4242ZM30.7124 17.9583L28.5631 24.9426C28.4505 25.3129 28.2216 25.637 27.9103 25.8668C27.599 26.0967 27.2219 26.2201 26.8349 26.2188H19.5945C19.202 26.2173 18.8205 26.0887 18.5072 25.8523C18.1939 25.6158 17.9656 25.2843 17.8565 24.9072L15.1309 15.3706H13.8638C13.7039 15.3706 13.5507 15.3071 13.4376 15.1941C13.3246 15.081 13.2611 14.9277 13.2611 14.7679C13.2611 14.6081 13.3246 14.4548 13.4376 14.3417C13.5507 14.2287 13.7039 14.1652 13.8638 14.1652H15.1309C15.3926 14.1661 15.647 14.2517 15.856 14.4092C16.065 14.5668 16.2174 14.7877 16.2903 15.0391L16.9013 17.1786H30.1361C30.2304 17.1786 30.3234 17.2007 30.4076 17.2431C30.4919 17.2856 30.5649 17.3472 30.621 17.4231C30.677 17.4989 30.7145 17.5869 30.7304 17.6798C30.7463 17.7728 30.7401 17.8682 30.7124 17.9583ZM29.3202 18.384H17.2456L19.0152 24.5765C19.0512 24.7024 19.1272 24.8131 19.2317 24.8919C19.3362 24.9708 19.4636 25.0134 19.5945 25.0134H26.8349C26.9639 25.0135 27.0895 24.9722 27.1932 24.8955C27.2969 24.8189 27.3734 24.7111 27.4112 24.5878L29.3202 18.384Z" fill="white"/>
</svg>
