<svg width="48" height="48" viewBox="0 0 48 48" fill="none" xmlns="http://www.w3.org/2000/svg">
<rect width="48" height="48" rx="24" fill="#545454" fill-opacity="0.3"/>
<path d="M29.625 13.2C27.3019 13.2 25.2679 14.199 24 15.8876C22.7322 14.199 20.6981 13.2 18.375 13.2C16.5258 13.202 14.7529 13.9376 13.4453 15.2452C12.1376 16.5528 11.4021 18.3257 11.4 20.175C11.4 28.05 23.0764 34.4242 23.5736 34.6875C23.7047 34.758 23.8512 34.7949 24 34.7949C24.1488 34.7949 24.2953 34.758 24.4264 34.6875C24.9236 34.4242 36.6 28.05 36.6 20.175C36.5979 18.3257 35.8624 16.5528 34.5548 15.2452C33.2472 13.9376 31.4743 13.202 29.625 13.2ZM24 32.865C21.9458 31.668 13.2 26.2151 13.2 20.175C13.2018 18.803 13.7476 17.4878 14.7177 16.5176C15.6878 15.5475 17.0031 15.0017 18.375 15C20.5631 15 22.4003 16.1655 23.1675 18.0375C23.2353 18.2025 23.3507 18.3437 23.4989 18.4431C23.6471 18.5424 23.8216 18.5955 24 18.5955C24.1785 18.5955 24.3529 18.5424 24.5011 18.4431C24.6494 18.3437 24.7647 18.2025 24.8325 18.0375C25.5998 16.1621 27.4369 15 29.625 15C30.997 15.0017 32.3122 15.5475 33.2823 16.5176C34.2524 17.4878 34.7982 18.803 34.8 20.175C34.8 26.2061 26.052 31.6668 24 32.865Z" fill="white"/>
</svg>
