<svg width="29" height="30" viewBox="0 0 29 30" fill="none" xmlns="http://www.w3.org/2000/svg">
<path d="M20.225 4.20001C17.9019 4.20001 15.8679 5.19901 14.6 6.88764C13.3321 5.19901 11.2981 4.20001 8.975 4.20001C7.12575 4.2021 5.35285 4.93763 4.04523 6.24524C2.73762 7.55286 2.00208 9.32577 2 11.175C2 19.05 13.6764 25.4243 14.1736 25.6875C14.3047 25.758 14.4512 25.7949 14.6 25.7949C14.7488 25.7949 14.8953 25.758 15.0264 25.6875C15.5236 25.4243 27.2 19.05 27.2 11.175C27.1979 9.32577 26.4624 7.55286 25.1548 6.24524C23.8472 4.93763 22.0742 4.2021 20.225 4.20001ZM14.6 23.865C12.5458 22.668 3.8 17.2151 3.8 11.175C3.80179 9.80307 4.34758 8.48782 5.3177 7.51771C6.28781 6.54759 7.60305 6.0018 8.975 6.00001C11.1631 6.00001 13.0002 7.16551 13.7675 9.03751C13.8353 9.20258 13.9507 9.34377 14.0989 9.44313C14.2471 9.54249 14.4215 9.59554 14.6 9.59554C14.7785 9.59554 14.9529 9.54249 15.1011 9.44313C15.2493 9.34377 15.3647 9.20258 15.4325 9.03751C16.1997 7.16214 18.0369 6.00001 20.225 6.00001C21.5969 6.0018 22.9122 6.54759 23.8823 7.51771C24.8524 8.48782 25.3982 9.80307 25.4 11.175C25.4 17.2061 16.652 22.6669 14.6 23.865Z" fill="#2667FF"/>
</svg>
