<svg width="14" height="13" viewBox="0 0 14 13" fill="none" xmlns="http://www.w3.org/2000/svg">
<path d="M12.824 5.75517L10.3576 7.90767L11.0965 11.1124C11.1356 11.2799 11.1244 11.4552 11.0644 11.6165C11.0044 11.7777 10.8982 11.9176 10.759 12.0188C10.6199 12.12 10.454 12.178 10.2822 12.1854C10.1103 12.1928 9.94005 12.1494 9.79271 12.0606L6.99763 10.3653L4.20857 12.0606C4.06122 12.1494 3.89097 12.1928 3.7191 12.1854C3.54723 12.178 3.38136 12.12 3.24224 12.0188C3.10311 11.9176 2.9969 11.7777 2.93689 11.6165C2.87688 11.4552 2.86572 11.2799 2.90482 11.1124L3.64255 7.91095L1.1756 5.75517C1.04512 5.64264 0.950768 5.49408 0.904379 5.32814C0.857989 5.1622 0.861626 4.98625 0.914833 4.82237C0.968039 4.65849 1.06845 4.51396 1.20347 4.40691C1.33848 4.29987 1.5021 4.23507 1.6738 4.22064L4.92552 3.939L6.19482 0.911497C6.2611 0.752639 6.37291 0.616944 6.51615 0.521498C6.6594 0.426051 6.82768 0.375122 6.99982 0.375122C7.17195 0.375122 7.34023 0.426051 7.48348 0.521498C7.62673 0.616944 7.73853 0.752639 7.80482 0.911497L9.07794 3.939L12.3286 4.22064C12.5003 4.23507 12.6639 4.29987 12.7989 4.40691C12.9339 4.51396 13.0343 4.65849 13.0875 4.82237C13.1407 4.98625 13.1444 5.1622 13.098 5.32814C13.0516 5.49408 12.9573 5.64264 12.8268 5.75517H12.824Z" fill="#BDBEC2"/>
</svg>
